<?xml version="1.0" encoding="UTF-8" standalone="no"?>
<svg
   xmlns:dc="http://purl.org/dc/elements/1.1/"
   xmlns:cc="http://creativecommons.org/ns#"
   xmlns:rdf="http://www.w3.org/1999/02/22-rdf-syntax-ns#"
   xmlns:svg="http://www.w3.org/2000/svg"
   xmlns="http://www.w3.org/2000/svg"
   xmlns:sodipodi="http://sodipodi.sourceforge.net/DTD/sodipodi-0.dtd"
   xmlns:inkscape="http://www.inkscape.org/namespaces/inkscape"
   width="200.04333"
   height="65.585289"
   viewBox="0 0 200.04333 65.585289"
   version="1.1"
   id="svg15"
   sodipodi:docname="logo-2.svg"
   inkscape:version="1.0.2 (e86c870879, 2021-01-15)">
  <metadata
     id="metadata21">
    <rdf:RDF>
      <cc:Work
         rdf:about="">
        <dc:format>image/svg+xml</dc:format>
        <dc:type
           rdf:resource="http://purl.org/dc/dcmitype/StillImage" />
        <dc:title>Group 2</dc:title>
      </cc:Work>
    </rdf:RDF>
  </metadata>
  <defs
     id="defs19" />
  <sodipodi:namedview
     pagecolor="#ff7cff"
     bordercolor="#666666"
     borderopacity="1"
     objecttolerance="10"
     gridtolerance="10"
     guidetolerance="10"
     inkscape:pageopacity="0"
     inkscape:pageshadow="2"
     inkscape:window-width="3200"
     inkscape:window-height="1284"
     id="namedview17"
     showgrid="false"
     inkscape:zoom="8.6781287"
     inkscape:cx="100.0145"
     inkscape:cy="24.623681"
     inkscape:window-x="2391"
     inkscape:window-y="-9"
     inkscape:window-maximized="1"
     inkscape:current-layer="svg15" />
  <!-- Generator: Sketch 57.1 (83088) - https://sketch.com -->
  <title
     id="title2">Group 2</title>
  <desc
     id="desc4">Created with Sketch.</desc>
  <g
     id="Web"
     stroke="none"
     stroke-width="1"
     fill="none"
     fill-rule="evenodd"
     style="fill:#e00618;fill-opacity:1;stroke:#ffffff;stroke-width:3;stroke-linecap:butt;stroke-linejoin:round;stroke-miterlimit:4;stroke-dasharray:none;stroke-opacity:1;paint-order:stroke markers fill"
     transform="translate(1.0125017,0.87541132)">
    <g
       id="Login-Copy"
       transform="translate(-621,-241)"
       fill="#FFFFFF"
       fill-rule="nonzero"
       style="fill:#e00618;fill-opacity:1;stroke:#ffffff;stroke-width:3;stroke-linecap:butt;stroke-linejoin:round;stroke-miterlimit:4;stroke-dasharray:none;stroke-opacity:1;paint-order:stroke markers fill">
      <g
         id="Group-7"
         transform="translate(480,241)"
         style="fill:#e00618;fill-opacity:1;stroke:#ffffff;stroke-width:3;stroke-linecap:butt;stroke-linejoin:round;stroke-miterlimit:4;stroke-dasharray:none;stroke-opacity:1;paint-order:stroke markers fill">
        <g
           id="Group-2"
           transform="translate(141)"
           style="fill:#e00618;fill-opacity:1;stroke:#ffffff;stroke-width:3;stroke-linecap:butt;stroke-linejoin:round;stroke-miterlimit:4;stroke-dasharray:none;stroke-opacity:1;paint-order:stroke markers fill">
          <path
             d="m 145.89247,31.013937 -5.77554,1.091079 c -0.5327,-2.482206 -2.01864,-3.70967 -4.42979,-3.70967 -3.42047,0 -5.41108,2.618591 -5.41108,7.119294 0,4.446149 2.07472,7.146571 5.55126,7.146571 1.54201,0 2.85974,-0.627371 3.6728,-1.71845 0.47662,-0.654648 0.67288,-1.200188 0.8411,-2.345821 l 5.83162,0.845586 c -0.5327,2.318545 -1.1495,3.655117 -2.32704,4.99169 -1.73827,1.936666 -4.45783,2.973191 -7.85026,2.973191 -3.42047,0 -6.30824,-1.036525 -8.29884,-3.000468 -2.07472,-2.045775 -3.25226,-5.237182 -3.25226,-8.892299 0,-3.709671 1.17754,-6.846524 3.39244,-8.974129 1.93453,-1.827559 4.76623,-2.836807 8.04651,-2.836807 3.61673,0 6.44843,1.200187 8.27081,3.573285 0.89717,1.118357 1.3738,2.127606 1.73827,3.736948 z"
             id="C"
             style="fill:#e00618;fill-opacity:1;stroke:#ffffff;stroke-width:3;stroke-linecap:butt;stroke-linejoin:round;stroke-miterlimit:4;stroke-dasharray:none;stroke-opacity:1;paint-order:stroke markers fill" />
          <path
             d="m 197.2505,31.013937 -5.77555,1.091079 c -0.5327,-2.482206 -2.01864,-3.70967 -4.42979,-3.70967 -3.42047,0 -5.41107,2.618591 -5.41107,7.119294 0,4.446149 2.07471,7.146571 5.55125,7.146571 1.54202,0 2.85974,-0.627371 3.6728,-1.71845 0.47663,-0.654648 0.67288,-1.200188 0.8411,-2.345821 l 5.83162,0.845586 c -0.53269,2.318545 -1.1495,3.655117 -2.32704,4.99169 -1.73827,1.936666 -4.45782,2.973191 -7.85026,2.973191 -3.42047,0 -6.30824,-1.036525 -8.29884,-3.000468 -2.07471,-2.045775 -3.25225,-5.237182 -3.25225,-8.892299 0,-3.709671 1.17754,-6.846524 3.39243,-8.974129 1.93453,-1.827559 4.76623,-2.836807 8.04652,-2.836807 3.61672,0 6.44842,1.200187 8.27081,3.573285 0.89717,1.118357 1.37379,2.127606 1.73827,3.736948 z"
             id="path7"
             style="fill:#e00618;fill-opacity:1;stroke:#ffffff;stroke-width:3;stroke-linecap:butt;stroke-linejoin:round;stroke-miterlimit:4;stroke-dasharray:none;stroke-opacity:1;paint-order:stroke markers fill" />
          <g
             id="airbnb"
             style="fill:#e00618;fill-opacity:1;stroke:#ffffff;stroke-width:3;stroke-linecap:butt;stroke-linejoin:round;stroke-miterlimit:4;stroke-dasharray:none;stroke-opacity:1;paint-order:stroke markers fill">
            <path
               d="m 106.17382,16.350079 c 0,2.255529 -1.81744,4.071718 -4.07297,4.071718 -2.25553,0 -4.071719,-1.816189 -4.071719,-4.071718 0,-2.255528 1.75423,-4.071717 4.071719,-4.071717 2.31936,0.06258 4.07297,1.879399 4.07297,4.071717 z M 89.383772,24.55735 v 1.002596 c 0,0 -1.941357,-2.507116 -6.076284,-2.507116 -6.827918,0 -12.15382,5.200107 -12.15382,12.404156 0,7.14209 5.263318,12.404156 12.15382,12.404156 4.197511,0 6.076284,-2.568449 6.076284,-2.568449 v 1.064554 c 0,0.501298 0.376756,0.876177 0.877428,0.876177 h 5.073688 V 23.677418 H 90.2612 c -0.500672,0.0019 -0.877428,0.441218 -0.877428,0.879932 z m 0,15.097147 c -0.93876,1.378726 -2.818785,2.569075 -5.073688,2.569075 -4.009133,0 -7.079506,-2.505865 -7.079506,-6.766586 0,-4.260096 3.070373,-6.765961 7.079506,-6.765961 2.192945,0 4.197512,1.252933 5.073688,2.568449 z m 9.710539,-15.975201 h 6.013699 v 23.556005 h -6.013699 z m 72.638009,9.585997 v 14.032592 h -6.01496 V 33.953717 c 0,-3.883339 -1.25293,-5.450444 -4.63372,-5.450444 -1.81619,0 -3.69621,0.940013 -4.88844,2.318739 v 16.413915 h -6.01245 V 23.679922 h 4.75952 c 0.5013,0 0.87743,0.438714 0.87743,0.877428 v 1.002596 c 1.75423,-1.81744 4.07172,-2.507116 6.3892,-2.507116 2.63166,0 4.82461,0.752886 6.57884,2.256154 2.12911,1.754231 2.94458,4.009134 2.94458,7.956309 z M 120.26899,23.052204 c 1.81619,0 2.7562,0.314172 2.7562,0.314172 v 5.574986 c 0,0 -5.01173,-1.691647 -8.14343,1.880024 V 47.29726 h -6.01495 V 23.679296 h 5.07494 c 0.5013,0 0.87617,0.438714 0.87617,0.877428 v 1.002596 c 1.12902,-1.316142 3.5723,-2.507116 5.45107,-2.507116 z M 56.871365,42.849412 c -0.501924,-1.127138 -1.003222,-2.192945 -1.440684,-3.194915 l -0.06258,-0.06258 C 51.044792,30.194294 46.409818,20.672759 41.52263,11.276392 L 41.334878,10.899636 C 40.820857,9.9248706 40.319931,8.9432561 39.832236,7.9550568 39.205144,6.8266667 38.579303,5.63757 37.576707,4.5091798 35.57214,2.003315 32.690145,0.62458868 29.621024,0.62458868 c -3.132957,0 -5.951741,1.37872632 -8.018266,3.75879722 -0.940013,1.1271385 -1.629689,2.3174868 -2.255529,3.445877 -0.488931,0.9875789 -0.989849,1.9691777 -1.502643,2.9445791 l -0.188378,0.376756 C 12.832231,20.546965 8.1340472,30.069126 3.8113678,39.466119 l -0.06321,0.124542 C 3.3100697,40.594509 2.8081457,41.659064 2.3068476,42.785576 1.9939274,43.475252 1.6810072,44.226887 1.368087,45.041105 0.55324288,47.358592 0.3022809,49.551536 0.61645276,51.807691 1.305503,56.5065 4.4372082,60.451798 8.7605134,62.20728 c 1.6290626,0.689676 3.3207086,1.002596 5.0743136,1.002596 0.501298,0 1.127139,-0.06258 1.629063,-0.125793 2.067776,-0.250337 4.197511,-0.938761 6.265287,-2.129109 2.568449,-1.441311 5.01173,-3.507836 7.767931,-6.514998 2.756201,3.007162 5.262066,5.073687 7.767931,6.514998 2.068402,1.190348 4.197511,1.878772 6.264661,2.129109 0.501299,0.06383 1.128391,0.125793 1.629689,0.125793 1.75423,0 3.507835,-0.31292 5.073688,-1.002596 4.385889,-1.755482 7.45501,-5.763364 8.144686,-10.399589 0.497543,-2.192319 0.247207,-4.384012 -0.567011,-6.70275 -0.31292,-0.751635 -0.626466,-1.565853 -0.939387,-2.255529 z M 29.557814,48.36244 c -3.383293,-4.260096 -5.576237,-8.269229 -6.327246,-11.65127 -0.31292,-1.441311 -0.37613,-2.694243 -0.187752,-3.822007 0.124542,-1.002597 0.501298,-1.880025 1.002596,-2.631659 1.190349,-1.690395 3.194916,-2.756201 5.513028,-2.756201 2.318739,0 4.38589,1.002596 5.513654,2.756201 0.501298,0.751634 0.876802,1.629688 1.003222,2.631659 0.187126,1.12839 0.124542,2.44328 -0.188378,3.822007 -0.754138,3.319457 -2.947082,7.329216 -6.329124,11.65127 z m 24.994813,2.944579 c -0.438088,3.257499 -2.631033,6.077535 -5.700154,7.330468 -1.503269,0.62584 -3.132957,0.814218 -4.760768,0.62584 -1.565852,-0.188378 -3.132957,-0.689676 -4.760768,-1.628436 -2.255528,-1.254184 -4.510431,-3.194915 -7.14209,-6.077536 4.134302,-5.073688 6.640167,-9.710539 7.580179,-13.844215 0.438714,-1.942608 0.501924,-3.696213 0.31292,-5.325901 -0.24971,-1.565853 -0.814218,-3.007163 -1.691021,-4.260096 -1.943234,-2.820036 -5.201359,-4.447847 -8.833736,-4.447847 -3.632378,0 -6.890503,1.691646 -8.832485,4.447847 -0.876803,1.252933 -1.441311,2.694243 -1.691647,4.260096 -0.250336,1.629688 -0.188378,3.445877 0.31292,5.325901 0.939387,4.133676 3.507835,8.832485 7.579553,13.906799 -2.568449,2.881995 -4.886562,4.824603 -7.14209,6.077536 -1.629063,0.940012 -3.19429,1.44131 -4.760142,1.628436 -1.691021,0.188378 -3.320709,-0.06258 -4.761394,-0.62584 C 7.1927833,57.447138 4.9998386,54.627102 4.5617504,51.369603 4.3739983,49.80375 4.4985405,48.237898 5.1256326,46.483667 5.3127588,45.856575 5.6269307,45.230735 5.9398509,44.4791 6.378565,43.476504 6.8786114,42.410698 7.3805354,41.346143 l 0.06321,-0.124542 C 11.765799,31.886566 16.401398,22.364405 21.225376,13.093206 l 0.187752,-0.376756 c 0.501924,-0.93876 1.003222,-1.941356 1.503894,-2.8813687 0.501298,-1.0025963 1.064555,-1.9426085 1.754231,-2.7574527 1.315516,-1.5020168 3.069121,-2.3174868 5.01173,-2.3174868 1.942608,0 3.696213,0.81547 5.011729,2.3174868 0.689676,0.8167217 1.252933,1.756734 1.754231,2.7574527 0.501924,0.9400127 1.003222,1.9426087 1.503268,2.8813687 l 0.188378,0.376756 c 4.750418,9.309721 9.324459,18.708392 13.719673,28.190979 v 0.06258 c 0.501924,1.003848 0.940012,2.130361 1.44131,3.134209 0.31292,0.750382 0.626466,1.376223 0.814218,2.003315 0.500047,1.627185 0.687799,3.194289 0.436837,4.822726 z"
               id="Shape"
               style="fill:#e00618;fill-opacity:1;stroke:#ffffff;stroke-width:3;stroke-linecap:butt;stroke-linejoin:round;stroke-miterlimit:4;stroke-dasharray:none;stroke-opacity:1;paint-order:stroke markers fill" />
          </g>
        </g>
      </g>
    </g>
  </g>
</svg>
